<?xml version="1.0" standalone="no"?>
<!DOCTYPE svg PUBLIC "-//W3C//DTD SVG 20010904//EN"
 "http://www.w3.org/TR/2001/REC-SVG-20010904/DTD/svg10.dtd">
<svg version="1.0" xmlns="http://www.w3.org/2000/svg"
 width="800.000000pt" height="800.000000pt" viewBox="0 0 800.000000 800.000000"
 preserveAspectRatio="xMidYMid meet">
<metadata>
Created by potrace 1.11, written by Peter Selinger 2001-2013
</metadata>
<g transform="translate(0.000000,800.000000) scale(0.100000,-0.100000)"
fill="#000000" stroke="none">
<path d="M4388 6825 c-194 -50 -406 -308 -553 -671 -52 -130 -62 -179 -64
-306 -3 -167 24 -332 94 -573 l35 -120 -123 -115 c-213 -201 -431 -422 -496
-504 -169 -214 -255 -385 -317 -631 -44 -177 -51 -403 -16 -545 31 -126 96
-285 113 -274 5 3 6 -1 3 -9 -13 -35 218 -319 246 -302 9 5 11 4 6 -3 -8 -13
87 -86 180 -138 98 -55 231 -100 359 -122 22 -4 128 -7 236 -7 124 0 196 -4
196 -10 1 -24 15 -223 18 -255 2 -19 7 -82 10 -140 4 -58 9 -114 11 -125 11
-55 5 -276 -10 -345 -33 -155 -116 -281 -223 -338 -58 -30 -241 -72 -318 -72
-67 0 -85 51 -27 81 53 27 135 94 168 138 123 161 53 407 -146 512 -63 33
-203 34 -270 2 -158 -76 -242 -258 -197 -429 6 -25 43 -99 60 -122 49 -65 150
-152 207 -179 157 -74 382 -74 539 -1 131 62 255 220 296 377 30 117 35 198
19 315 -7 50 -15 120 -19 156 -4 36 -9 72 -10 81 -2 9 -6 40 -10 70 -3 30 -10
81 -15 114 -5 33 -12 88 -15 121 l-6 61 66 27 c245 98 375 193 478 349 162
246 218 482 171 715 -59 288 -288 528 -574 604 -86 23 -252 32 -324 18 -27 -6
-51 -9 -52 -7 -4 3 -6 17 -29 182 -9 61 -18 128 -21 150 -32 225 -32 213 -9
237 103 113 300 365 392 503 237 357 324 620 323 985 0 63 -3 131 -6 150 -19
124 -72 243 -138 312 -78 82 -147 106 -238 83z m120 -265 c53 -50 79 -140 81
-286 2 -95 -21 -267 -38 -288 -5 -6 -16 -34 -25 -63 -22 -67 -100 -196 -173
-286 -32 -39 -132 -145 -223 -234 -185 -183 -167 -179 -195 -46 -24 114 -26
260 -4 359 31 145 143 387 257 559 56 84 141 177 267 295 16 14 29 12 53 -10z
m-514 -1951 c4 -30 13 -97 21 -149 7 -52 16 -113 19 -135 2 -22 8 -58 11 -81
l7 -41 -49 -17 c-128 -48 -283 -172 -369 -296 -45 -65 -97 -177 -89 -190 4 -6
2 -10 -3 -10 -5 0 -12 -12 -15 -27 -3 -16 -11 -53 -17 -83 -16 -75 -7 -242 16
-300 59 -149 215 -300 349 -340 81 -24 127 6 58 38 -151 68 -214 169 -215 342
0 111 9 155 52 246 50 103 133 189 232 239 39 19 76 35 84 35 13 0 19 -22 28
-95 3 -22 13 -89 21 -150 18 -128 15 -106 55 -395 35 -255 38 -278 44 -322 3
-18 12 -84 21 -146 9 -63 14 -116 12 -119 -21 -20 -185 -31 -275 -17 -230 34
-412 107 -523 210 -14 14 -28 22 -32 19 -4 -3 -5 -2 -2 1 2 4 -14 27 -36 53
-23 25 -53 66 -67 91 -15 25 -30 47 -34 48 -4 2 -8 12 -8 22 0 10 -4 21 -9 24
-5 3 -19 38 -31 78 -62 206 -75 442 -31 573 58 169 192 366 440 645 73 81 100
111 242 264 35 37 66 73 68 80 6 15 17 -28 25 -95z m371 -764 c177 -46 329
-197 374 -371 25 -96 16 -315 -20 -443 -48 -177 -156 -302 -325 -377 -30 -13
-56 -24 -58 -24 -3 0 -18 90 -30 180 -11 84 -57 417 -61 440 -2 14 -16 111
-30 215 -14 105 -28 201 -30 215 -2 14 -7 48 -10 75 -3 28 -9 62 -11 78 l-6
27 74 0 c41 0 100 -7 133 -15z m-1390 -85 c3 -6 -1 -7 -9 -4 -18 7 -21 14 -7
14 6 0 13 -4 16 -10z"/>
</g>
</svg>
